PathFileType	4	(X/Y/Z)	KinectSkeleton.trc																																																	
DataRate	CameraRate	NumFrames	NumMarkers	Units	OrigDataRate	OrigDataStartFrame	OrigNumFrames																																													
60	60	11	17	mm	60	344	300																																													
Frame#	Time	Neck			ShoulderMid			R.Shoulder			L.Shoulder			R.Elbow			L.Elbow			R.Wrist			L.Wrist			HipCenter			R.Hip			L.Hip			R.Knee			L.Knee			R.Ankle			L.Ankle			R.Foot			L.Foot		
		X1	Y1	Z1	X2	Y2	Z2	X3	Y3	Z3	X4	Y4	Z4	X5	Y5	Z5	X6	Y6	Z6	X7	Y7	Z7	X8	Y8	Z8	X9	Y9	Z9	X10	Y10	Z10	X11	Y11	Z11	X12	Y12	Z12	X13	Y13	Z13	X14	Y14	Z14	X15	Y15	Z15	X16	Y16	Z16	X17	Y17	Z17
																																																				
344	17.873	-1297.469	773.397	218.113	-1297.469	773.397	218.113	-1315.027	714.311	383.922	-1308.889	716.114	41.459	-1439.935	571.815	598.281	-1440.604	585.605	-169.406	-1352.326	438.835	776.039	-1355.443	440.083	-334.065	-1460.426	254.648	237.184	-1463.432	258.94	320.567	-1457.092	249.889	144.716	-1217.585	-28.412	469.247	-1203.424	-39.274	12.385	-1492.21	-302.178	406.283	-1500.35	-278.967	86.66	-1362.462	-404.763	463.861	-1373.688	-416.904	52.513
345	17.921	-1294.461	774.86	218.247	-1294.461	774.86	218.247	-1312.675	715.656	383.743	-1307.049	718.398	41.733	-1436.374	571.567	597.154	-1434.213	590.582	-172.97	-1351.284	437.118	774.541	-1352.564	441.257	-335.474	-1459.79	257.71	235.758	-1460.515	261.179	319.102	-1458.985	253.864	143.332	-1219.178	-28.82	468.336	-1205.695	-36.746	15.431	-1493.588	-302.336	407.109	-1497.847	-282.227	86.561	-1362.972	-404.018	463.502	-1371.369	-418.538	47.217
346	17.969	-1294.752	775.743	218.033	-1294.752	775.743	218.033	-1313.82	716.118	383.952	-1307.963	718.008	41.231	-1437.748	571.238	597.745	-1433.502	587.573	-173.858	-1350.494	435.586	774.04	-1344.822	441.342	-336.428	-1461.551	257.218	235.652	-1464.681	261.151	319.15	-1458.08	252.856	143.057	-1218.604	-26.546	468.129	-1204.67	-39.643	16.16	-1492.828	-301.81	407.002	-1500.882	-282.568	85.062	-1361.971	-404.241	462.966	-1370.9	-417.421	49.805
347	18.014	-1293.618	775.418	216.348	-1293.618	775.418	216.348	-1313.804	715.573	381.564	-1308.007	718.853	39.516	-1434.748	570.788	596.246	-1431.373	587.607	-175.492	-1347.579	429.234	767.115	-1339.195	441.062	-335.017	-1458.614	257.722	233.104	-1460.76	261.656	316.44	-1456.233	253.359	140.688	-1219.715	-26.993	469.201	-1205.043	-40.519	15.581	-1492.304	-302.165	406.196	-1500.807	-282.323	85.287	-1362.734	-404.796	463.512	-1372.536	-418.539	51.398
348	18.059	-1292.419	775.541	215.612	-1292.419	775.541	215.612	-1313.203	716.391	381.562	-1306.38	718.196	38.539	-1435.363	570.775	596.063	-1430.495	588.189	-177.815	-1348.802	428.128	767.268	-1336.036	439.379	-334.868	-1459.922	257.121	233.171	-1462.483	261.102	316.727	-1457.083	252.706	140.51	-1219.777	-26.671	471.531	-1203.244	-40.861	16.311	-1492.777	-302.402	405.931	-1502.865	-279.923	85.085	-1361.745	-403.938	463.374	-1373.026	-415.067	49.9
349	18.105	-1291.534	774.101	216.282	-1291.534	774.101	216.282	-1312.884	715.263	382.264	-1304.483	717.429	39.538	-1435.126	569.465	596.184	-1427.7	587.718	-177.117	-1349.208	425.124	765.931	-1330.136	438.511	-331.494	-1456.768	255.967	237.47	-1460.191	260.63	320.87	-1452.973	250.797	144.981	-1218.862	-29.471	472.304	-1201.762	-41.991	15.153	-1493.389	-302.92	406.047	-1501.831	-279.357	85.477	-1362.181	-403.805	463.662	-1374.201	-416.069	49.381
350	18.151	-1290.618	775.536	215.422	-1290.618	775.536	215.422	-1311.687	716.075	381.187	-1302.767	718.309	38.57	-1435.4	569.855	594.038	-1424.749	585.7	-177.091	-1350.141	424.052	762.924	-1329.727	434.927	-331.593	-1456.759	257.209	234.58	-1459.978	261.613	318.018	-1453.188	252.326	142.051	-1220.28	-29.091	471.066	-1201.145	-41.284	15.513	-1494.958	-302.944	406.723	-1500.743	-279.55	85.174	-1362.593	-403.263	462.752	-1370.855	-414.607	50.764
351	18.198	-1289.559	775.258	215.168	-1289.559	775.258	215.168	-1310.689	715.243	380.687	-1302.38	717.895	38.202	-1435.168	569.728	593.589	-1425.575	586.371	-177.448	-1351.202	424.223	763.389	-1331.413	435.224	-332.124	-1457.151	257.499	233.794	-1459.745	261.901	317.256	-1454.274	252.617	141.237	-1218.552	-27.399	470.656	-1201.831	-40.921	15.282	-1492.801	-301.772	406.609	-1501.068	-279.517	85.44	-1360.422	-402.223	462.388	-1372.374	-415.37	49.672
352	18.245	-1287.163	775.787	214.21	-1287.163	775.787	214.21	-1309.389	715.056	379.668	-1299.538	717.201	37.371	-1434.977	570.14	592.598	-1424.68	586.381	-177.842	-1350.422	425.225	762.846	-1329.773	433.632	-330.732	-1456.565	258.243	232.484	-1460.303	262.751	315.956	-1452.419	253.244	139.917	-1218.182	-25.473	470.672	-1200.936	-40.697	12.071	-1493.05	-299.545	406.297	-1500.043	-278.446	87.011	-1363.893	-403.578	463.436	-1374.461	-417.531	51.892
353	18.292	-1287.162	775.786	214.209	-1287.162	775.786	214.209	-1309.389	715.056	379.667	-1299.537	717.199	37.371	-1434.979	570.142	592.597	-1424.678	586.377	-177.842	-1350.428	425.227	762.846	-1329.768	433.627	-330.729	-1456.565	258.243	232.484	-1460.303	262.751	315.956	-1452.419	253.244	139.917	-1218.183	-25.473	470.673	-1200.937	-40.698	12.072	-1493.052	-299.544	406.298	-1500.045	-278.446	87.012	-1363.897	-403.577	463.438	-1374.464	-417.532	51.894
354	18.337	-1286.969	775.845	214.005	-1286.969	775.845	214.005	-1309.264	715.211	379.498	-1299.228	717.09	37.204	-1435.044	570.506	592.473	-1423.921	585.717	-177.948	-1350.729	425.607	762.868	-1328.416	432.84	-330.352	-1456.533	258.34	232.445	-1460.271	262.869	315.92	-1452.388	253.317	139.875	-1218.354	-25.484	470.756	-1201.044	-40.76	12.015	-1493.602	-299.174	406.283	-1500.243	-278.376	87.095	-1364.757	-403.505	463.604	-1374.826	-417.678	52.204
